<svg xmlns="http://www.w3.org/2000/svg" width="223.176" height="512.52" viewBox="0 0 167.382 384.39"><g stroke-width="2" stroke-linecap="round" stroke-linejoin="round" stroke="#000"><path d="M152.558847 28.494326C151.194264 27.405784 150.173431 26.791201 147.886972 26.702659 143.673431 26.702659 139.454681 26.702659 135.241139 26.702659 135.241139 28.197451 135.241139 31.692242 135.241139 33.187034 139.454681 33.187034 139.673431 33.187034 143.886972 33.187034 149.298431 32.671409 151.616139 38.806826 151.116139 43.744326 146.574472 67.645367 143.043222 86.989117 145.418222 108.301617 146.069264 114.796409 150.121347 125.530784 154.001556 125.431826 158.183847 125.322451 161.808847 115.249534 162.584889 108.301617 165.319264 83.713076 160.199472 61.739117 154.741139 32.374534 154.491139 31.051617 153.886972 29.551617 152.558847 28.494326M52.001556 26.364117C46.277597 57.765159 40.553639 80.603701 43.418222 106.301617 44.069264 112.796409 48.121347 123.530784 52.001556 123.431826 56.183847 123.322451 59.808847 113.249534 60.584889 106.301617 63.444264 80.603701 57.720306 57.765159 52.001556 26.364117" transform="matrix(.75 0 0 .75 -1.884 -9.675)" fill="none"/><path d="M52.001556 24.900576C46.121347 42.504742 40.241139 55.301617 43.178639 69.702659 43.850514 73.348492 48.011972 79.358909 52.001556 79.306826 56.298431 79.244326 60.022389 73.598492 60.819264 69.702659 63.761972 55.301617 57.881764 42.504742 52.001556 24.900576M104.001556 128.364117C115.579681 128.364117 125.001556 118.942242 125.001556 107.364117 125.001556 95.780784 115.579681 86.364117 104.001556 86.364117 92.418222 86.364117 83.001556 95.780784 83.001556 107.364117 83.001556 118.942242 92.418222 128.364117 104.001556 128.364117" transform="matrix(.75 0 0 .75 -1.884 -9.675)" fill="none"/><path d="M104.001556 86.358909C92.418222 86.358909 83.001556 95.780784 83.001556 107.358909 83.001556 118.942242 92.418222 128.358909 104.001556 128.358909 115.579681 128.358909 125.001556 118.942242 125.001556 107.358909 125.001556 95.780784 115.579681 86.358909 104.001556 86.358909M104.001556 91.931826C104.001556 91.931826 110.626556 107.358909 110.626556 107.358909 110.626556 107.358909 104.001556 122.791201 104.001556 122.791201 104.001556 122.791201 97.376556 107.358909 97.376556 107.358909 97.376556 107.358909 104.001556 91.931826 104.001556 91.931826M75.209889 122.520367C78.392181 122.520367 80.959889 129.051617 80.959889 137.160992 80.959889 145.275576 78.392181 151.806826 75.209889 151.806826 72.022389 151.806826 69.454681 145.275576 69.454681 137.160992 69.454681 129.051617 72.022389 122.520367 75.209889 122.520367" transform="matrix(.75 0 0 .75 -1.884 -9.675)" fill="none"/><path d="M 102.980722 189.473492 C 114.564056 189.473492 123.980722 180.056826 123.980722 168.473492 C 123.980722 156.895367 114.564056 147.473492 102.980722 147.473492 C 91.402597 147.473492 81.980722 156.895367 81.980722 168.473492 C 81.980722 180.056826 91.402597 189.473492 102.980722 189.473492" transform="matrix(.75 0 0 .75 -1.884 -9.675)"/><path d="M127.001556 145.364117C129.308847 152.400576 151.944264 145.478701 149.048431 135.478701 146.147389 125.483909 124.689056 138.322451 127.001556 145.364117M127.001556 205.364117C129.308847 212.400576 151.944264 205.478701 149.048431 195.478701 146.147389 185.483909 124.689056 198.322451 127.001556 205.364117" transform="matrix(.75 0 0 .75 -1.884 -9.675)" fill="none"/><path d="M102.980722 249.473492C114.564056 249.473492 123.980722 240.056826 123.980722 228.473492 123.980722 216.895367 114.564056 207.473492 102.980722 207.473492 91.402597 207.473492 81.980722 216.895367 81.980722 228.473492 81.980722 240.056826 91.402597 249.473492 102.980722 249.473492M141.538014 265.942242C145.913014 275.702659 193.871347 253.634951 188.454681 239.577659 183.038014 225.520367 137.163014 256.176617 141.538014 265.942242" transform="matrix(.75 0 0 .75 -1.884 -9.675)"/><path d="M156.543222 303.400576C142.371347 295.181826 125.095306 302.322451 133.116139 282.030784 138.902597 267.400576 164.147389 282.806826 156.543222 303.400576M203.350514 264.426617C187.251556 257.483909 161.918222 276.494326 165.616139 290.478701 169.038014 303.421409 204.616139 279.452659 203.350514 264.426617" transform="matrix(.75 0 0 .75 -1.884 -9.675)" fill="none"/><path d="M213.652597 286.890159C197.558847 279.942242 172.220306 298.952659 175.918222 312.937034 179.345306 325.884951 214.918222 301.916201 213.652597 286.890159M165.069264 357.296409C160.668222 338.713076 156.267181 325.197451 158.465097 309.994326 158.970306 306.150576 162.084889 299.801617 165.069264 299.858909 168.288014 299.926617 171.074472 305.884951 171.668222 309.994326 173.871347 325.197451 169.470306 338.713076 165.069264 357.296409M82.121347 268.473492C82.121347 268.473492 123.845306 268.473492 123.845306 268.473492M52.001556 254.358909C50.798431 260.957867 49.616139 267.108909 48.491139 273.051617 50.866139 273.285992 53.449472 273.952659 55.871347 274.978701 54.652597 268.457867 53.329681 261.660992 52.001556 254.358909M46.058847 286.426617C43.209889 303.140159 41.621347 318.160992 43.418222 334.301617 44.069264 340.796409 48.121347 351.530784 52.001556 351.431826 56.183847 351.322451 59.808847 341.249534 60.584889 334.301617 62.189056 319.884951 61.090097 306.364117 58.808847 291.728701 54.850514 291.603701 49.907806 289.369326 46.058847 286.426617" transform="matrix(.75 0 0 .75 -1.884 -9.675)" fill="none"/><path d="M40.043222 276.239117C42.683847 268.181826 68.584889 276.103701 65.267181 287.546409 61.949472 298.983909 37.397389 284.291201 40.043222 276.239117M102.980722 329.473492C114.564056 329.473492 123.980722 320.056826 123.980722 308.473492 123.980722 296.895367 114.564056 287.473492 102.980722 287.473492 91.402597 287.473492 81.980722 296.895367 81.980722 308.473492 81.980722 320.056826 91.402597 329.473492 102.980722 329.473492M116.001556 346.369326C115.975514 346.134951 115.782806 343.957867 115.548431 343.957867 111.569264 343.660992 106.371347 344.254742 103.298431 341.207867 99.876556 337.020367 95.746347 335.676617 92.324472 336.306826 88.907806 336.931826 86.204681 339.525576 85.709889 343.004742 85.485931 344.577659 85.975514 345.822451 86.897389 346.650576 87.819264 347.483909 89.105722 347.937034 90.558847 348.207867 93.459889 348.744326 97.032806 348.530784 99.506764 348.530784 99.506764 348.530784 115.548431 348.530784 115.548431 348.530784 115.798431 348.530784 116.001556 348.332867 116.001556 348.082867 116.001556 348.082867 116.001556 346.410992 116.001556 346.410992 116.001556 346.400576 116.001556 346.384951 116.001556 346.369326M102.980722 399.473492C114.564056 399.473492 123.980722 390.056826 123.980722 378.473492 123.980722 366.895367 114.564056 357.473492 102.980722 357.473492 91.402597 357.473492 81.980722 366.895367 81.980722 378.473492 81.980722 390.056826 91.402597 399.473492 102.980722 399.473492M81.631764 410.489117C81.673431 410.775576 82.017181 410.994326 82.428639 410.994326 84.480722 410.994326 85.433847 411.332867 86.689056 412.249534 87.944264 413.160992 89.392181 414.687034 91.918222 416.853701 97.944264 422.020367 105.220306 423.676617 111.241139 422.900576 117.267181 422.129742 122.022389 418.926617 122.897389 414.634951 123.293222 412.697451 122.428639 411.166201 120.803639 410.140159 119.183847 409.108909 116.913014 408.551617 114.355722 408.218284 109.246347 407.556826 102.954681 407.817242 98.590097 407.817242 98.590097 407.817242 82.428639 407.817242 82.428639 407.817242 81.991139 407.817242 81.631764 408.067242 81.631764 408.379742 81.631764 408.379742 81.631764 410.437034 81.631764 410.437034 81.631764 410.452659 81.631764 410.468284 81.631764 410.489117M102.980722 471.473492C114.564056 471.473492 123.980722 462.056826 123.980722 450.473492 123.980722 438.895367 114.564056 429.473492 102.980722 429.473492 91.402597 429.473492 81.980722 438.895367 81.980722 450.473492 81.980722 462.056826 91.402597 471.473492 102.980722 471.473492M147.433847 452.676617C147.949472 460.364117 145.897389 468.030784 139.621347 475.468284 137.897389 477.004742 130.652597 479.343284 132.881764 470.754742 137.079681 465.739117 138.902597 459.457867 138.850514 452.676617 138.855722 445.900576 137.027597 439.619326 132.834889 434.598492 130.605722 426.015159 137.845306 428.353701 139.574472 429.890159 145.845306 437.327659 147.949472 444.994326 147.433847 452.676617M67.574472 448.785992C58.772389 447.468284 44.845306 437.697451 31.142181 442.421409 25.366139 444.416201 22.329681 447.754742 18.918222 454.129742 15.564056 460.822451 17.095306 469.176617 22.189056 471.546409 41.579681 480.562034 48.610931 453.327659 67.574472 448.785992M89.683847 476.129742C84.090097 474.562034 73.631764 463.343284 64.032806 462.582867 48.517181 461.353701 41.720306 478.926617 51.147389 490.702659 62.298431 498.410992 68.433847 496.780784 76.418222 489.525576 78.824472 487.343284 85.418222 478.317242 89.683847 476.129742M56.605722 501.187034C48.199472 501.270367 43.840097 490.046409 39.579681 484.322451 34.772389 478.874534 21.897389 477.197451 16.308847 483.785992 10.350514 498.598492 19.834889 512.499534 35.298431 513.327659 43.511972 514.124534 50.777597 509.739117 56.605722 501.187034" transform="matrix(.75 0 0 .75 -1.884 -9.675)" fill="none"/></g></svg>